<?xml version="1.0" standalone="no"?><!DOCTYPE svg PUBLIC "-//W3C//DTD SVG 1.1//EN" "http://www.w3.org/Graphics/SVG/1.1/DTD/svg11.dtd"><svg t="1627311343234" class="icon" viewBox="0 0 1024 1024" version="1.1" xmlns="http://www.w3.org/2000/svg" p-id="5065" xmlns:xlink="http://www.w3.org/1999/xlink" width="200" height="200"><defs><style type="text/css">@font-face { font-family: feedback-iconfont; src: url("//at.alicdn.com/t/font_1031158_1uhr8ri0pk5.eot?#iefix") format("embedded-opentype"), url("//at.alicdn.com/t/font_1031158_1uhr8ri0pk5.woff2") format("woff2"), url("//at.alicdn.com/t/font_1031158_1uhr8ri0pk5.woff") format("woff"), url("//at.alicdn.com/t/font_1031158_1uhr8ri0pk5.ttf") format("truetype"), url("//at.alicdn.com/t/font_1031158_1uhr8ri0pk5.svg#iconfont") format("svg"); }
</style></defs><path d="M476.59 422.06h-2.95-0.01c-10.32 0-16.55-4.58-19.96-8.43-5.45-6.15-6.42-13.49-6.45-17.72-22.75-4.83-61.17-18.48-70.41-56.14-10.62-43.27-8.03-88.74-7.91-90.65l0.04-0.57c1.85-19.26 19.03-31.3 27.86-34.98 75.56-31.41 174.06-30 234.18 3.32 21.01 11.65 23.86 28.74 24.21 34.44 0.45 3.95 2.58 24.7 0.85 49.38-2.66 38.07-12.95 66.12-30.57 83.37-31.99 31.32-98.27 37.98-148.88 37.98z m-17-24.07h0.05-0.05z m19.73-1.35zM401 251.44c-0.22 4.38-1.88 44.23 7.07 80.66 6.69 27.25 50.44 33.34 55.4 33.94 9.49 1.15 16.47 9.24 16.23 18.82l-0.13 5.01c60.15-0.33 104.98-10.76 123.4-28.79 24.36-23.84 22.85-84.93 20.22-106.45l-0.24-1.98c-0.42-1.35-1.97-4.51-7.55-7.61-51.42-28.5-140.07-29.24-206.23-1.75-2.55 1.07-7.7 5.37-8.17 8.15z" fill="#006837" opacity=".7" p-id="5066"></path><path d="M658.31 959.56h-92c-22.31 0-40.83-16.91-43.09-39.32l-5.38-53.49c-1.24 0.01-2.49 0.01-3.75 0.02h-2.14c-1.28 0-2.55-0.01-3.8-0.02L503.4 914c-2.61 25.97-24.04 45.56-49.85 45.56h-80.8c-21.9 0-41.53-14.73-47.92-35.88l-50.6-151.4c-56.83-17.71-113.97-71.6-113.97-155.09 0-61.42 32.74-117.02 70.65-181.4 16.86-28.62 34.27-58.2 50.43-90.91 2.55-9.51 5.09-19.29 7.67-29.23 9.75-37.54 19.83-76.35 33.09-112.8 0.14-0.4 0.3-0.79 0.47-1.18 4.06-9.5 8.56-18.62 13.45-27.28-11.02-9.97-21.52-23.7-23.93-40.96-1.67-11.97 0.05-30.22 17.75-49.15 19.27-20.63 37.77-21.99 49.87-19.5 16.52 3.39 28.6 15.42 36.77 27.25 38.56-21.71 75.51-25.3 96.03-25.26h0.98C534 66.61 570.96 70.31 609.5 92c8.17-11.82 20.26-23.84 36.78-27.23 12.12-2.5 30.61-1.12 49.89 19.5 17.7 18.93 19.41 37.18 17.74 49.15-2.42 17.26-12.9 30.99-23.93 40.96 4.89 8.65 9.39 17.77 13.45 27.28 0.17 0.39 0.32 0.78 0.47 1.18 13.24 36.41 23.31 75.19 33.05 112.68 2.59 9.98 5.15 19.81 7.7 29.35 16.16 32.72 33.58 62.3 50.44 90.92 37.91 64.37 70.64 119.97 70.64 181.39 0 83.48-57.12 137.37-113.95 155.08l-52.07 156.37c-5.53 18.24-22.48 30.93-41.4 30.93z m-89.56-45.97h87.53l54.56-163.86c0.74-2.2 1.8-4.29 3.16-6.18 0.83-1.16 1.65-2.33 2.46-3.52a22.97 22.97 0 0 1 13.92-9.56c43.05-9.85 89.38-49.51 89.38-113.28 0-48.89-29.79-99.48-64.29-158.06-17.64-29.95-35.87-60.92-53.08-96-0.65-1.33-1.17-2.72-1.56-4.15-2.78-10.34-5.56-21.02-8.39-31.89-9.41-36.24-19.15-73.72-31.54-107.92-5.88-13.66-12.79-26.28-20.55-37.51-3.6-5.22-4.89-11.7-3.56-17.91 1.34-6.2 5.18-11.58 10.62-14.85 11.51-6.92 20.12-15.9 20.95-21.82 0.53-3.73-2.86-8.26-5.8-11.4-4.08-4.36-6.58-5.51-7.31-5.77-3.8 1.49-11.58 12.12-15.64 23.06-2.53 6.82-8.15 12.08-15.13 14.12-7 2.02-14.54 0.69-20.33-3.7-35.11-26.61-71.51-30.63-90.28-30.63h-1.79c-18.76 0-55.17 4.02-90.31 30.66a22.967 22.967 0 0 1-20.41 3.72 22.942 22.942 0 0 1-15.09-14.23c-4.02-10.86-11.78-21.49-15.58-23-0.75 0.27-3.24 1.42-7.3 5.76-2.94 3.14-6.32 7.67-5.8 11.4 0.83 5.92 9.44 14.89 20.95 21.82 5.44 3.27 9.28 8.65 10.62 14.85 1.34 6.2 0.05 12.69-3.56 17.91-7.76 11.23-14.67 23.84-20.55 37.51-12.41 34.24-22.15 71.76-31.58 108.05-2.81 10.83-5.58 21.47-8.35 31.77a22.81 22.81 0 0 1-1.56 4.15c-17.2 35.07-35.44 66.03-53.07 95.98-34.5 58.59-64.3 109.18-64.3 158.08 0 63.77 46.33 103.43 89.38 113.28 5.68 1.3 10.66 4.71 13.92 9.54 0.81 1.19 1.63 2.37 2.47 3.54 1.36 1.89 2.43 3.96 3.16 6.17l53.39 159.75c0.09 0.29 0.18 0.57 0.27 0.87 0.57 1.94 2.15 3.25 3.93 3.25h80.8c2.11 0 3.87-1.8 4.12-4.19l6.89-68.53c1.23-12.19 11.9-21.26 24.02-20.66 7.49 0.38 15.15 0.57 23.42 0.58l0.66 22.98-0.09-22.98h1.11c8.65-0.02 16.31-0.22 23.75-0.59 12.29-0.57 22.79 8.47 24.02 20.66l7.34 72.73z" fill="#0000FF" opacity=".7" p-id="5067"></path><path d="M512.46 865.07c-70.57 0-122.42-18.04-158.52-55.15-36.26-37.27-53.65-92.26-51.7-163.44 0.78-28.49 21.75-52.66 49.87-57.47 36.69-6.27 94.26-13.75 160.15-13.75 65.92 0 123.68 7.49 160.53 13.77 28.14 4.8 49.13 28.97 49.91 57.48 1.95 71.17-15.45 126.15-51.7 163.42-36.11 37.1-87.97 55.14-158.54 55.14z m-0.21-243.85c-62.67 0-117.46 7.12-152.4 13.09-6.58 1.12-11.49 6.77-11.67 13.42-1.6 58.32 11.42 102.09 38.7 130.13 27 27.75 68.08 41.24 125.58 41.24 57.51 0 98.59-13.49 125.58-41.24 27.28-28.03 40.3-71.81 38.7-130.1-0.18-6.66-5.1-12.3-11.69-13.43-35.09-5.98-90.09-13.11-152.8-13.11z" fill="#0000FF" opacity=".7" p-id="5068"></path></svg>